# xmcd
# Copyright (c) 1998 CDDB Inc.
#
# Track frame offsets:
#	150
#	13980
#	36924
#	49541
#	69405
#	89239
#	103154
#	127231
#	148263
#	168753
#	182795
#	192565
#	209188
#
# Disc length: 3090 seconds
#
# Revision: 1
# Processed by: cddbd v1.4b41PL1 Copyright (c) Steve Scherf et al.
# Submitted via: audiograbber 1.70
#
DISCID=d30c100d
DTITLE=Spirit'n Voices - Shout to the Lord
DYEAR=1900
DGENRE=
TTITLE0=Let your house be filled with your glory
TTITLE1=Shout to the lord
TTITLE2=Ev'rybody gonna pray
TTITLE3=Herr der Ewigkeit
TTITLE4=That's enough
TTITLE5=Put your hand in the hand
TTITLE6=Amen
TTITLE7=Wie ein Fest nach langer Trauer
TTITLE8=Jesus is the answer
TTITLE9=Swing low, sweet chariot
TTITLE10=Joshua fit the battle of Jericho
TTITLE11=Oh happy day
TTITLE12=When you believe
EXTD=Gospelchor Spirit'n Voices, Hütschenhausen\nwww.spirit-n-voices.de
EXTT0=
EXTT1=
EXTT2=
EXTT3=
EXTT4=
EXTT5=
EXTT6=
EXTT7=
EXTT8=
EXTT9=
EXTT10=
EXTT11=
EXTT12=
PLAYORDER=
